<svg width="7" height="14" viewBox="0 0 7 14" fill="none" xmlns="http://www.w3.org/2000/svg">
<path d="M5.78125 1.3125C6.03125 1.3125 6.23958 1.40625 6.40625 1.59375C6.59375 1.76042 6.6875 1.96875 6.6875 2.21875V12.4375C6.6875 12.6875 6.59375 12.8958 6.40625 13.0625C6.23958 13.2292 6.03125 13.3125 5.78125 13.3125H0.90625C0.65625 13.3125 0.4375 13.2292 0.25 13.0625C0.0833333 12.8958 0 12.6875 0 12.4375V2.21875C0 1.96875 0.0833333 1.76042 0.25 1.59375C0.4375 1.40625 0.65625 1.3125 0.90625 1.3125H2V0H4.6875V1.3125H5.78125Z" fill="#333333"/>
</svg>
